PathFileType	4	(X/Y/Z)	Patient4_TMGait_0pt5_01_right_09.trc.trc
DataRate	CameraRate	NumFrames	NumMarkers	Units	OrigDataRate	OrigDataStartFrame	OrigNumFrames
72.916666666667	72.916666666667	4	33	mm	72.916666666667	106	       141
Frame#	Time	L.ASIS			Sacral			L.Shoulder			Chest			R.Shoulder			Neck			R.ASIS			R.Thigh.Superior			R.Thigh.Lateral			R.Thigh.Inferior			R.Patella			L.Thigh.Superior			L.Thigh.Lateral			L.Thigh.Inferior			L.Patella			L.Shank.Superior			L.Shank.Lateral			L.Shank.Inferior			R.Shank.Superior			R.Shank.Lateral			R.Shank.Inferior			R.Heel			R.Midfoot.Superior			R.Midfoot.Lateral			R.Toe			L.Heel			L.Midfoot.Lateral			L.Midfoot.Superior			L.Toe			L.Elbow			L.Wrist			R.Elbow			R.Wrist			
		X1	Y1	Z1	X2	Y2	Z2	X3	Y3	Z3	X4	Y4	Z4	X5	Y5	Z5	X6	Y6	Z6	X7	Y7	Z7	X8	Y8	Z8	X9	Y9	Z9	X10	Y10	Z10	X11	Y11	Z11	X12	Y12	Z12	X13	Y13	Z13	X14	Y14	Z14	X15	Y15	Z15	X16	Y16	Z16	X17	Y17	Z17	X18	Y18	Z18	X19	Y19	Z19	X20	Y20	Z20	X21	Y21	Z21	X22	Y22	Z22	X23	Y23	Z23	X24	Y24	Z24	X25	Y25	Z25	X26	Y26	Z26	X27	Y27	Z27	X28	Y28	Z28	X29	Y29	Z29	X30	Y30	Z30	X31	Y31	Z31	X32	Y32	Z32	X33	Y33	Z33	

106	12.880000000000	712.028408071549	963.475640466831	272.956830409432	501.911745886961	1010.220525382375	436.618191332523	677.502214816370	1444.941562091016	262.617135536804	781.222724694465	1366.081341606886	419.663630984061	699.764822436032	1433.658890050363	598.103215474812	679.741299767383	1499.841397102748	415.619265312412	731.615959567737	946.869669436319	546.956230623063	811.811775569311	777.231655101494	515.990890214970	776.222590835004	657.759540323858	591.699529348848	861.361027475268	616.769002770972	507.560344210942	882.670987797742	505.149972955662	531.369558776927	752.459338156114	745.812201360366	308.561223395711	655.156586715533	633.699685969957	257.044793787080	733.065667450363	552.755741416308	323.073979614079	728.286289396053	482.523039974836	337.031449131854	697.610466421289	412.115985016669	330.951543774249	602.249579810519	301.947297116695	283.924594376538	643.800997731631	190.634082433287	359.066298357452	810.647027212683	428.151950498417	540.567413329943	692.894394314941	379.408031782801	600.026841111042	687.836842309537	269.225812971210	552.971341809406	492.935309304517	193.413265446215	522.079903626407	662.928457201326	146.370612433873	568.427592210527	553.373389467830	141.099414133306	599.611074669982	733.456937481651	40.153097393064	603.375449784268	506.193722014902	38.755307805114	404.166359176698	579.441842485779	35.568425287893	322.711555224504	663.972492664778	95.596124263255	348.067037924530	791.373422524654	40.379796859117	317.439246465660	692.301280681669	1107.153613753253	105.838861513966	911.298519530792	964.502674601769	103.325795395204	632.364350106233	1086.675080502371	693.962928670620	676.279518474331	828.317775805117	688.682465570666	
107	12.893714285714	712.200805757457	963.405813126178	273.139343377183	501.445799305730	1010.701220200044	435.807128258823	678.864823838178	1445.062081802477	262.061722429283	781.450382702407	1366.145718841966	419.846376033619	698.943472085104	1434.010005629527	597.670939371562	680.150675603951	1500.071897188817	415.028374587848	730.498660743039	947.468276808176	547.283811455571	811.641130063942	779.283924097719	515.977798753931	777.786523780114	659.592867887999	592.080339737588	862.676171383190	619.280229876081	507.425428812148	885.953194307471	509.066139935973	531.486965325998	750.144870789248	744.822125871953	309.242191564679	651.725552669260	633.748594692840	257.007852608835	728.251782581791	552.000513486168	323.417662203281	722.471187224138	481.958546673044	337.409477012177	691.826588271131	411.872548022998	331.078518088481	596.198965077534	302.023892073971	283.881891330011	637.301926660575	190.586503627123	359.085481552448	817.332105070377	430.048592598847	540.746780639029	702.355617256843	375.531424879325	600.297133446146	702.702203675088	265.287169674712	553.007190325619	511.772343621760	178.985570031202	522.205101412458	684.148565139868	141.986165443065	568.436206936878	575.236853765379	130.572282747379	599.824472579492	760.771879740177	40.327871901536	603.712688461103	499.305211886658	38.854247366794	404.112216509631	572.556486328476	35.592045503332	322.716586508540	657.122977459971	95.596522954097	348.051329703600	784.496529512674	40.300831797770	317.434742666292	698.083665518899	1108.038720600587	104.995754208293	922.245242952514	974.031591066076	103.597982655110	623.501176399166	1089.067250201686	693.127091601710	655.868492187263	828.926449746592	687.880053517263	
108	12.907428571429	712.400370590026	963.234147915703	273.439063630082	500.992007211736	1011.105410192419	435.051214136021	680.274549391043	1445.044481277238	261.664810075604	781.730202008640	1366.094615145213	420.181529713138	698.190295427688	1434.293571619383	597.374801862418	680.611905596438	1500.184752358098	414.586775305542	729.401781199252	947.902149324327	547.733824997572	811.111007926339	780.815290131737	516.176936858041	778.520267992923	660.946595919342	592.601043123594	863.169938142663	621.141440189331	507.587036613139	888.244047832465	512.597874731689	531.804690036657	747.864028263478	743.770867388390	309.963566743074	648.319546638274	633.752963287956	256.978857553258	723.435901591679	551.211505983134	323.760943474088	716.659662007071	481.380709149794	337.769507454297	686.046845089017	411.594717880963	331.202167527783	590.150030762356	302.074068204329	283.843300151388	630.794978318387	190.515923751053	359.116949738659	823.403937189083	431.643358410932	541.091699439762	711.870693969319	371.050217766976	600.917308186881	717.969006315402	261.080466227229	553.285159803032	531.985774951977	163.871428061668	522.802266083556	706.279880657726	137.586645839027	568.655891848244	598.478500516765	119.663884207210	600.371549098214	789.062852968518	40.988790012729	603.961722124448	492.426616919820	38.943099043467	404.051732224711	565.664464141296	35.606834108768	322.721343517119	650.261997284650	95.592506241705	348.044777330532	777.612948781040	40.236606178413	317.436355374893	703.702661524827	1108.793685488149	104.404856333556	932.451326010023	983.224639123982	104.167019532733	614.693809543936	1091.592621230212	692.390842392859	636.637657735954	830.382928049447	687.190570492477	
109	12.921142857143	712.617967895937	962.957327923748	273.850246941874	500.567384853948	1011.419015148135	434.362351070367	681.728368469195	1444.886807216230	261.432676106737	782.066656318693	1365.918556045879	420.666323666709	697.524426408634	1434.493540257426	597.222046933258	681.133451595976	1500.172807587640	414.301716221238	728.344873924777	948.164209194735	548.294950941689	810.222167737132	781.787789829516	516.588065954495	778.371957827835	661.781774579914	593.257904407547	862.811724717791	622.313415526147	508.055902810740	889.516692969399	515.700259940363	532.293188788099	745.624191777931	742.652104426077	310.703610822326	644.944981110925	633.706658571704	256.956272197017	718.630838161702	550.385492593253	324.097412365664	710.875703058102	480.788154133576	338.104246005679	680.285755334385	411.279376381232	331.320951615159	584.111562075825	302.096047429800	283.810877131114	624.284550338950	190.417583814971	359.161206997863	828.795102293058	432.954432931339	541.581332468791	721.395518117540	366.117631759011	601.869183271127	733.503452123884	256.809167006425	553.784988588442	553.493250765612	148.457920940706	523.831628470256	729.118922476603	133.453030797264	569.086801252302	622.941130279224	108.743400858915	601.224619265559	817.982077292135	42.407017359017	604.105543937006	485.554116332817	39.021517123003	403.986768679128	558.765214438720	35.613337270826	322.725363132633	643.389345404639	95.582777625704	348.047406614492	770.720694505656	40.185191174507	317.443787707147	709.140161326880	1109.406868099696	104.056442689315	941.906004202357	991.966910383162	105.004240698370	606.047906114335	1094.209318021654	691.760649383213	618.695969504980	832.487412647778	686.646212805667	
